<svg width="24" height="24" viewBox="0 0 24 24" fill="none" xmlns="http://www.w3.org/2000/svg" data-token-name="line-menu-favorites">
    <path d="M11.5245 4.46366C11.6742 4.003 12.3259 4.003 12.4755 4.46366L13.9084 8.87349C13.9753 9.0795 14.1673 9.21898 14.3839 9.21898H19.0207C19.505 9.21898 19.7064 9.83878 19.3146 10.1235L15.5634 12.8489C15.3881 12.9762 15.3148 13.2019 15.3817 13.4079L16.8146 17.8178C16.9642 18.2784 16.437 18.6615 16.0451 18.3768L12.2939 15.6514C12.1187 15.524 11.8814 15.524 11.7061 15.6514L7.9549 18.3768C7.56304 18.6615 7.0358 18.2784 7.18548 17.8178L8.61832 13.4079C8.68526 13.2019 8.61193 12.9762 8.43668 12.8489L4.68546 10.1235C4.2936 9.83878 4.49499 9.21898 4.97935 9.21898H9.61612C9.83273 9.21898 10.0247 9.0795 10.0916 8.87349L11.5245 4.46366Z" fill="#0A2ECC"/>
</svg>
