<svg width="24" height="24" viewBox="0 0 24 24" fill="none" xmlns="http://www.w3.org/2000/svg" data-token-name="line-arrow-right">
    <path fill-rule="evenodd" clip-rule="evenodd" d="M13.306 6.78361C12.898 6.37559 12.898 5.71405 13.306 5.30602C13.714 4.89799 14.3756 4.89799 14.7836 5.30602L20.694 11.2164C20.9094 11.4318 21.0111 11.7179 20.999 12C21.0111 12.2821 20.9094 12.5682 20.694 12.7836L14.7836 18.694C14.3756 19.102 13.714 19.102 13.306 18.694C12.898 18.286 12.898 17.6244 13.306 17.2164L17.5224 13H4C3.44772 13 3 12.5523 3 12C3 11.4477 3.44772 11 4 11H17.5224L13.306 6.78361Z" fill="#374152"/>
</svg>
